HIERARCHY
ROOT Hips
{
	OFFSET 0.000000 0.000000 0.000000
	CHANNELS 6 Xposition Yposition Zposition Xrotation Yrotation Zrotation
	JOINT LeftUpLeg_virtual
	{
		OFFSET 0.000000 0.000000 0.000000
		CHANNELS 3 Xrotation Yrotation Zrotation
		JOINT LeftUpLeg
		{
			OFFSET 13.026900 -6.336304 -1.092800
			CHANNELS 3 Xrotation Yrotation Zrotation
			JOINT LeftLeg
			{
				OFFSET 0.524474 -46.096886 9.782700
				CHANNELS 3 Xrotation Yrotation Zrotation
				JOINT LeftFoot
				{
					OFFSET -0.524474 -53.427422 -12.948200
					CHANNELS 3 Xrotation Yrotation Zrotation
					JOINT LeftToeBase
					{
						OFFSET 0.192200 -14.009700 16.364100
						CHANNELS 3 Xrotation Yrotation Zrotation
						JOINT LeftToe_End
						{
							OFFSET -1.784700 -0.561700 9.474800
							CHANNELS 3 Xrotation Yrotation Zrotation
							End Site
							{
								OFFSET 0 0 0
							}
						}
					}
				}
			}
		}
	}
	JOINT RightUpLeg_virtual
	{
		OFFSET 0.000000 0.000000 0.000000
		CHANNELS 3 Xrotation Yrotation Zrotation
		JOINT RightUpLeg
		{
			OFFSET -12.883000 -6.336304 -1.092800
			CHANNELS 3 Xrotation Yrotation Zrotation
			JOINT RightLeg
			{
				OFFSET -0.524587 -46.096825 9.782800
				CHANNELS 3 Xrotation Yrotation Zrotation
				JOINT RightFoot
				{
					OFFSET 0.524587 -53.427383 -12.948300
					CHANNELS 3 Xrotation Yrotation Zrotation
					JOINT RightToeBase
					{
						OFFSET -0.192200 -14.009700 16.364100
						CHANNELS 3 Xrotation Yrotation Zrotation
						JOINT RightToe_End
						{
							OFFSET 1.784700 -0.561700 9.474800
							CHANNELS 3 Xrotation Yrotation Zrotation
							End Site
							{
								OFFSET 0 0 0
							}
						}
					}
				}
			}
		}
	}
	JOINT Spine_virtual
	{
		OFFSET 0.000000 0.000000 0.000000
		CHANNELS 3 Xrotation Yrotation Zrotation
		JOINT Spine
		{
			OFFSET 0.072000 7.257294 -0.789700
			CHANNELS 3 Xrotation Yrotation Zrotation
			JOINT Spine1
			{
				OFFSET 0.000000 12.508769 -0.658067
				CHANNELS 3 Xrotation Yrotation Zrotation
				JOINT Spine1_split
				{
					OFFSET 0.000000 12.508769 -0.658067
					CHANNELS 3 Xrotation Yrotation Zrotation
					JOINT Spine2
					{
						OFFSET 0.000000 12.508769 -0.658067
						CHANNELS 3 Xrotation Yrotation Zrotation
						JOINT Neck_virtual
						{
							OFFSET 0.000000 0.000000 0.000000
							CHANNELS 3 Xrotation Yrotation Zrotation
							JOINT Neck
							{
								OFFSET 0.000000 14.033295 7.520400
								CHANNELS 3 Xrotation Yrotation Zrotation
								JOINT Head
								{
									OFFSET 0.000000 8.198502 5.703100
									CHANNELS 3 Xrotation Yrotation Zrotation
									JOINT HeadTop_End
									{
										OFFSET 0.000000 17.760803 13.332701
										CHANNELS 3 Xrotation Yrotation Zrotation
										End Site
										{
											OFFSET 0 0 0
										}
									}
								}
							}
						}
						JOINT LeftShoulder_virtual
						{
							OFFSET 0.000000 0.000000 0.000000
							CHANNELS 3 Xrotation Yrotation Zrotation
							JOINT LeftShoulder
							{
								OFFSET 6.292450 5.785301 -0.669000
								CHANNELS 3 Xrotation Yrotation Zrotation
								JOINT LeftShoulder_split
								{
									OFFSET 6.292450 5.785301 -0.669000
									CHANNELS 3 Xrotation Yrotation Zrotation
									JOINT LeftArm
									{
										OFFSET 13.907140 -6.093903 1.965100
										CHANNELS 3 Xrotation Yrotation Zrotation
										JOINT LeftForeArm
										{
											OFFSET 34.140198 0.000000 0.000000
											CHANNELS 3 Xrotation Yrotation Zrotation
											JOINT LeftHand
											{
												OFFSET 40.960209 0.000000 0.000000
												CHANNELS 3 Xrotation Yrotation Zrotation
												End Site
												{
													OFFSET 0 0 0
												}
											}
										}
									}
								}
							}
						}
						JOINT RightShoulder_virtual
						{
							OFFSET 0.000000 0.000000 0.000000
							CHANNELS 3 Xrotation Yrotation Zrotation
							JOINT RightShoulder
							{
								OFFSET -6.292450 5.785301 -0.669000
								CHANNELS 3 Xrotation Yrotation Zrotation
								JOINT RightShoulder_split
								{
									OFFSET -6.292450 5.785301 -0.669000
									CHANNELS 3 Xrotation Yrotation Zrotation
									JOINT RightArm
									{
										OFFSET -13.907140 -6.093903 1.965100
										CHANNELS 3 Xrotation Yrotation Zrotation
										JOINT RightForeArm
										{
											OFFSET -34.140198 0.000000 0.000000
											CHANNELS 3 Xrotation Yrotation Zrotation
											JOINT RightHand
											{
												OFFSET -40.960209 0.000000 0.000000
												CHANNELS 3 Xrotation Yrotation Zrotation
												End Site
												{
													OFFSET 0 0 0
												}
											}
										}
									}
								}
							}
						}
					}
				}
			}
		}
	}
}
MOTION
Frames: 6
Frame Time: 0.03333333
-7.007437 102.750076 17.413589 0.000000 0.000000 0.000000 -3.857562 -28.054920 -1.499135 -31.300708 -5.195956 4.910500 35.648653 -2.668085 2.986903 -8.305703 -8.239591 -3.173024 -1.348271 0.631020 1.765874 0.000000 0.000000 0.000000 -7.855214 -22.563740 -0.831851 -12.362851 -6.948252 2.167229 38.603317 5.368521 -2.513133 -21.039952 0.328487 -0.904445 -2.450316 1.667024 3.477652 0.000000 0.000000 0.000000 -5.766337 -39.622248 -1.834503 13.636298 8.558313 4.042225 -3.298959 19.086129 1.082651 -0.753139 5.541857 0.715981 0.000000 0.000000 0.000000 13.372770 21.753842 -5.175396 -1.669001 15.106488 3.775918 6.063720 49.026026 -4.591799 0.000000 0.000000 0.000000 13.120293 22.400459 -4.227552 7.458873 -9.581910 -5.207789 2.769783 -9.607074 -3.083522 -33.244539 3.886186 -54.591339 -83.245663 12.703556 -86.083053 0.000000 0.000000 0.000000 16.567829 22.271830 -5.828943 5.057370 20.980065 -9.339122 -11.464642 -1.984292 -10.032942 0.152467 36.414341 49.940554 -123.723454 69.970295 114.467427 0.000000 0.000000 0.000000 
-8.606410 103.106926 16.306770 0.000000 0.000000 0.000000 -4.403973 -25.209144 -0.939125 -29.494126 -3.069716 5.175298 31.007823 -1.416652 2.832790 -9.162897 -8.306126 -4.791414 -1.078411 1.034622 2.037576 0.000000 0.000000 0.000000 -8.310934 -19.463602 -0.233925 -11.432724 -7.065344 1.952679 36.955835 4.490131 -1.107939 -20.483022 0.718834 -1.978144 -1.915673 1.976045 3.099629 0.000000 0.000000 0.000000 -7.061761 -36.435289 -1.772982 14.942311 8.223228 4.119498 -3.630914 19.293080 0.756377 -0.478207 5.297269 0.938749 0.000000 0.000000 0.000000 13.676689 21.653812 -5.510575 -4.155238 14.953888 3.404108 6.345166 48.165944 -4.768371 0.000000 0.000000 0.000000 12.814215 22.494337 -4.380316 7.525644 -9.070478 -5.130547 4.523741 -10.270929 -3.204235 -35.032915 4.961438 -54.568468 -84.691101 12.640005 -86.611163 0.000000 0.000000 0.000000 15.815108 21.995969 -6.169268 4.715431 21.407368 -8.653436 -11.930537 -1.733963 -10.411457 0.979369 37.220990 47.620854 -124.040279 68.993585 114.821258 0.000000 0.000000 0.000000 
-9.852589 103.519997 15.817764 0.000000 0.000000 0.000000 -4.900125 -22.307784 -0.565223 -28.178692 0.425880 6.412063 27.085397 0.184754 2.556515 -9.847978 -7.885786 -6.533788 -1.022695 1.501752 2.374023 0.000000 0.000000 0.000000 -8.499045 -16.595174 0.237612 -10.750479 -6.931173 1.320310 35.782815 3.250156 0.191957 -19.792425 0.690170 -3.084455 -0.883050 2.206420 2.658394 0.000000 0.000000 0.000000 -7.968409 -33.507132 -1.735495 16.185820 7.880823 4.047361 -4.015370 19.238095 0.454943 -0.311226 4.883184 1.044082 0.000000 0.000000 0.000000 13.728154 21.389373 -5.680064 -6.996925 14.748602 3.593660 7.022318 47.148574 -5.103397 0.000000 0.000000 0.000000 12.483567 22.290802 -4.557996 7.853255 -9.124235 -4.124159 6.127084 -10.459233 -3.644534 -36.421140 4.375577 -54.073993 -85.679792 12.564248 -85.932031 0.000000 0.000000 0.000000 14.858464 21.537504 -6.302053 4.265289 21.714244 -7.612797 -10.908500 -0.648165 -11.204254 1.845803 38.417919 44.994127 -125.033142 68.584286 115.878339 0.000000 0.000000 0.000000 
-10.482743 103.979568 15.812168 0.000000 0.000000 0.000000 -5.233891 -19.307700 -0.510105 -27.717263 4.637064 8.658613 25.252912 1.919677 2.210076 -10.139735 -7.267987 -8.360161 -1.554581 2.017129 2.803813 0.000000 0.000000 0.000000 -8.402652 -13.763285 0.491468 -10.257751 -6.578404 0.596714 35.041514 1.736455 1.204017 -19.105924 0.272236 -4.134270 0.108963 2.327105 2.254835 0.000000 0.000000 0.000000 -8.202728 -30.588415 -1.676024 17.045128 7.651123 3.825124 -4.441940 19.013812 0.319820 -0.352989 4.314242 0.971120 0.000000 0.000000 0.000000 13.526078 21.085076 -5.600534 -9.664158 14.231430 4.454658 7.342540 45.875092 -5.341208 0.000000 0.000000 0.000000 11.882352 21.924639 -4.553279 8.342820 -9.679970 -2.273287 7.437817 -10.690697 -4.087908 -37.520019 2.938417 -53.101910 -86.555798 12.486083 -84.492398 0.000000 0.000000 0.000000 13.728689 21.040770 -6.096940 3.675748 21.731862 -6.439305 -8.758322 1.071468 -12.329424 2.817710 39.509260 41.916833 -128.375728 68.702414 119.170941 0.000000 0.000000 0.000000 
-10.612845 104.688293 16.054070 0.000000 0.000000 0.000000 -5.173937 -15.868196 -0.804397 -28.420526 8.799422 11.870188 26.301272 3.770437 1.688213 -10.054308 -6.678693 -10.152473 -2.427201 2.570107 3.289501 0.000000 0.000000 0.000000 -8.154926 -10.806397 0.434925 -10.211962 -6.187915 -0.172072 34.447793 0.233751 1.765638 -18.435884 -0.321759 -4.690455 0.383742 2.332315 1.934710 0.000000 0.000000 0.000000 -7.711869 -27.601512 -1.617466 17.196487 7.556791 3.465173 -4.936080 18.560998 0.449804 -0.584169 3.513461 0.655068 0.000000 0.000000 0.000000 13.081882 20.711200 -5.216501 -11.447471 13.389953 5.582570 6.918974 44.323997 -5.453097 0.000000 0.000000 0.000000 11.007988 21.435762 -4.243881 8.874874 -10.472484 0.151655 8.552737 -11.606401 -4.348566 -38.257546 1.839027 -51.725070 -88.152546 12.262520 -83.177074 0.000000 0.000000 0.000000 12.558601 20.522348 -5.461884 3.048118 21.202471 -5.449303 -6.443238 2.294797 -13.532045 3.346388 39.739263 38.873462 -135.517647 68.846039 126.042112 0.000000 0.000000 0.000000 
-10.453172 105.647171 16.353970 0.000000 0.000000 0.000000 -4.857925 -11.756449 -1.342140 -30.052429 12.249815 15.923961 29.980934 5.517370 0.955079 -9.333772 -6.240102 -12.147869 -3.291196 3.167793 3.758423 0.000000 0.000000 0.000000 -8.018564 -7.498128 0.154665 -10.765961 -6.073364 -1.040801 34.160798 -1.069808 1.857099 -17.781132 -0.922589 -4.529638 -0.090834 2.233410 1.745738 0.000000 0.000000 0.000000 -6.810652 -24.109801 -1.579674 16.440134 7.626763 3.003050 -5.355623 17.777768 0.827406 -1.151447 3.016706 0.433903 0.000000 0.000000 0.000000 12.517173 20.148189 -4.553647 -11.908135 12.587802 6.535980 5.745212 43.003363 -5.898972 0.000000 0.000000 0.000000 9.900668 20.760164 -3.599882 9.332280 -11.201573 2.716817 9.408571 -12.602323 -4.525677 -39.007251 2.079750 -50.205961 -90.706504 11.925747 -82.331080 0.000000 0.000000 0.000000 11.482299 19.860646 -4.474681 2.593674 20.152294 -5.076748 -4.784979 2.178805 -14.173185 3.203016 38.599127 36.454540 -145.787601 68.299050 135.795786 0.000000 0.000000 0.000000 
